<mxfile>
    <diagram id="X1uPH2sgndd9xruuCpUF" name="orders API">
        <mxGraphModel dx="444" dy="548" grid="1" gridSize="10" guides="1" tooltips="1" connect="1" arrows="1" fold="1" page="1" pageScale="1" pageWidth="850" pageHeight="1100" math="0" shadow="0">
            <root>
                <mxCell id="0"/>
                <mxCell id="1" parent="0"/>
                <mxCell id="2" value="Orders Service" style="rounded=0;whiteSpace=wrap;html=1;fillColor=#dae8fc;strokeColor=#6c8ebf;fontStyle=1;fontSize=18;fontColor=#000000;" parent="1" vertex="1">
                    <mxGeometry x="360" y="220" width="610" height="40" as="geometry"/>
                </mxCell>
                <mxCell id="3" value="Route" style="rounded=0;whiteSpace=wrap;html=1;fontSize=18;fillColor=#d5e8d4;strokeColor=#82b366;fontColor=#000000;" parent="1" vertex="1">
                    <mxGeometry x="360" y="260" width="140" height="40" as="geometry"/>
                </mxCell>
                <mxCell id="4" value="Method" style="rounded=0;whiteSpace=wrap;html=1;fontSize=18;fillColor=#d5e8d4;strokeColor=#82b366;fontColor=#000000;" parent="1" vertex="1">
                    <mxGeometry x="500" y="260" width="140" height="40" as="geometry"/>
                </mxCell>
                <mxCell id="5" value="Body" style="rounded=0;whiteSpace=wrap;html=1;fontSize=18;fillColor=#d5e8d4;strokeColor=#82b366;fontColor=#000000;" parent="1" vertex="1">
                    <mxGeometry x="640" y="260" width="140" height="40" as="geometry"/>
                </mxCell>
                <mxCell id="6" value="Goal" style="rounded=0;whiteSpace=wrap;html=1;fontSize=18;fillColor=#d5e8d4;strokeColor=#82b366;fontColor=#000000;" parent="1" vertex="1">
                    <mxGeometry x="780" y="260" width="190" height="40" as="geometry"/>
                </mxCell>
                <mxCell id="7" value="/api/orders" style="rounded=0;whiteSpace=wrap;html=1;fontSize=14;" parent="1" vertex="1">
                    <mxGeometry x="360" y="300" width="140" height="60" as="geometry"/>
                </mxCell>
                <mxCell id="8" value="GET" style="rounded=0;whiteSpace=wrap;html=1;fontSize=14;" parent="1" vertex="1">
                    <mxGeometry x="500" y="300" width="140" height="60" as="geometry"/>
                </mxCell>
                <mxCell id="9" value="-" style="rounded=0;whiteSpace=wrap;html=1;fontSize=14;" parent="1" vertex="1">
                    <mxGeometry x="640" y="300" width="140" height="60" as="geometry"/>
                </mxCell>
                <mxCell id="10" value="&lt;p style=&quot;line-height: 140%&quot;&gt;Retrieve all active orders for the given user making the request&lt;/p&gt;" style="rounded=0;whiteSpace=wrap;html=1;fontSize=14;" parent="1" vertex="1">
                    <mxGeometry x="780" y="300" width="190" height="60" as="geometry"/>
                </mxCell>
                <mxCell id="11" value="/api/orders/:id" style="rounded=0;whiteSpace=wrap;html=1;fontSize=14;" parent="1" vertex="1">
                    <mxGeometry x="360" y="360" width="140" height="40" as="geometry"/>
                </mxCell>
                <mxCell id="12" value="GET" style="rounded=0;whiteSpace=wrap;html=1;fontSize=14;" parent="1" vertex="1">
                    <mxGeometry x="500" y="360" width="140" height="40" as="geometry"/>
                </mxCell>
                <mxCell id="13" value="-" style="rounded=0;whiteSpace=wrap;html=1;fontSize=14;" parent="1" vertex="1">
                    <mxGeometry x="640" y="360" width="140" height="40" as="geometry"/>
                </mxCell>
                <mxCell id="14" value="Retrieve order with specific ID" style="rounded=0;whiteSpace=wrap;html=1;fontSize=14;" parent="1" vertex="1">
                    <mxGeometry x="780" y="360" width="190" height="40" as="geometry"/>
                </mxCell>
                <mxCell id="15" value="/api/orders" style="rounded=0;whiteSpace=wrap;html=1;fontSize=14;" parent="1" vertex="1">
                    <mxGeometry x="360" y="400" width="140" height="40" as="geometry"/>
                </mxCell>
                <mxCell id="16" value="POST" style="rounded=0;whiteSpace=wrap;html=1;fontSize=14;" parent="1" vertex="1">
                    <mxGeometry x="500" y="400" width="140" height="40" as="geometry"/>
                </mxCell>
                <mxCell id="17" value="{ ticketId: string }" style="rounded=0;whiteSpace=wrap;html=1;fontSize=14;" parent="1" vertex="1">
                    <mxGeometry x="640" y="400" width="140" height="40" as="geometry"/>
                </mxCell>
                <mxCell id="18" value="&lt;p style=&quot;line-height: 140%&quot;&gt;Create an order to purchase the specified ticket&lt;/p&gt;" style="rounded=0;whiteSpace=wrap;html=1;fontSize=14;" parent="1" vertex="1">
                    <mxGeometry x="780" y="400" width="190" height="40" as="geometry"/>
                </mxCell>
                <mxCell id="19" value="/api/orders/:id" style="rounded=0;whiteSpace=wrap;html=1;fontSize=14;" parent="1" vertex="1">
                    <mxGeometry x="360" y="440" width="140" height="40" as="geometry"/>
                </mxCell>
                <mxCell id="20" value="PATCH" style="rounded=0;whiteSpace=wrap;html=1;fontSize=14;" parent="1" vertex="1">
                    <mxGeometry x="500" y="440" width="140" height="40" as="geometry"/>
                </mxCell>
                <mxCell id="21" value="-" style="rounded=0;whiteSpace=wrap;html=1;fontSize=14;" parent="1" vertex="1">
                    <mxGeometry x="640" y="440" width="140" height="40" as="geometry"/>
                </mxCell>
                <mxCell id="22" value="Cancel ther order" style="rounded=0;whiteSpace=wrap;html=1;fontSize=14;" parent="1" vertex="1">
                    <mxGeometry x="780" y="440" width="190" height="40" as="geometry"/>
                </mxCell>
            </root>
        </mxGraphModel>
    </diagram>
</mxfile>